<?xml version="1.0" encoding="UTF-8" standalone="no"?>
<!-- Created with Inkscape (http://www.inkscape.org/) -->

<svg
   width="210mm"
   height="297mm"
   viewBox="0 0 210 297"
   version="1.1"
   id="svg982"
   inkscape:version="1.1.1 (3bf5ae0d25, 2021-09-20)"
   sodipodi:docname="VIP ESSENTIALS LOGO.svg"
   xmlns:inkscape="http://www.inkscape.org/namespaces/inkscape"
   xmlns:sodipodi="http://sodipodi.sourceforge.net/DTD/sodipodi-0.dtd"
   xmlns:xlink="http://www.w3.org/1999/xlink"
   xmlns="http://www.w3.org/2000/svg"
   xmlns:svg="http://www.w3.org/2000/svg">
  <sodipodi:namedview
     id="namedview984"
     pagecolor="#ffffff"
     bordercolor="#666666"
     borderopacity="1.0"
     inkscape:pageshadow="2"
     inkscape:pageopacity="0.0"
     inkscape:pagecheckerboard="0"
     inkscape:document-units="mm"
     showgrid="false"
     inkscape:zoom="0.70644641"
     inkscape:cx="396.34995"
     inkscape:cy="561.96761"
     inkscape:window-width="1920"
     inkscape:window-height="984"
     inkscape:window-x="-9"
     inkscape:window-y="-9"
     inkscape:window-maximized="1"
     inkscape:current-layer="g56443" />
  <defs
     id="defs979">
    <linearGradient
       inkscape:collect="always"
       xlink:href="#linearGradient30150"
       id="linearGradient1049"
       x1="1760.4083"
       y1="184.79765"
       x2="1782.2806"
       y2="-4.5627041"
       gradientUnits="userSpaceOnUse" />
    <linearGradient
       inkscape:collect="always"
       id="linearGradient30150">
      <stop
         style="stop-color:#077504;stop-opacity:1;"
         offset="0"
         id="stop30146" />
      <stop
         style="stop-color:#bff413;stop-opacity:1"
         offset="1"
         id="stop30148" />
    </linearGradient>
    <linearGradient
       inkscape:collect="always"
       xlink:href="#linearGradient30150"
       id="linearGradient1514"
       gradientUnits="userSpaceOnUse"
       x1="1645.7904"
       y1="283.27798"
       x2="1798.8319"
       y2="166.74342" />
    <linearGradient
       inkscape:collect="always"
       xlink:href="#linearGradient30150"
       id="linearGradient1516"
       gradientUnits="userSpaceOnUse"
       x1="1645.7904"
       y1="283.27798"
       x2="1798.8319"
       y2="166.74342" />
    <linearGradient
       inkscape:collect="always"
       xlink:href="#linearGradient30150"
       id="linearGradient1518"
       gradientUnits="userSpaceOnUse"
       x1="1787.3042"
       y1="212.10733"
       x2="1798.8319"
       y2="166.74342" />
    <linearGradient
       inkscape:collect="always"
       xlink:href="#linearGradient30150"
       id="linearGradient1520"
       gradientUnits="userSpaceOnUse"
       x1="1645.7904"
       y1="283.27798"
       x2="1798.8319"
       y2="166.74342" />
    <linearGradient
       inkscape:collect="always"
       xlink:href="#linearGradient30150"
       id="linearGradient1522"
       gradientUnits="userSpaceOnUse"
       x1="1737.6503"
       y1="205.07301"
       x2="1798.8319"
       y2="166.74342" />
    <linearGradient
       inkscape:collect="always"
       xlink:href="#linearGradient30150"
       id="linearGradient1524"
       gradientUnits="userSpaceOnUse"
       x1="1645.7904"
       y1="283.27798"
       x2="1798.8319"
       y2="166.74342" />
    <linearGradient
       inkscape:collect="always"
       xlink:href="#linearGradient30150"
       id="linearGradient1526"
       gradientUnits="userSpaceOnUse"
       x1="1645.7904"
       y1="283.27798"
       x2="1798.8319"
       y2="166.74342" />
  </defs>
  <g
     inkscape:label="Layer 1"
     inkscape:groupmode="layer"
     id="layer1">
    <g
       id="g56443"
       transform="matrix(0.90512947,0,0,0.90512947,-1429.5976,12.594773)"
       style="fill:url(#linearGradient1049);fill-opacity:1">
      <path
         id="path39715"
         style="fill:url(#linearGradient1514);fill-opacity:1;stroke:none;stroke-width:0.4751px;stroke-linecap:butt;stroke-linejoin:miter;stroke-opacity:1"
         d="m 1598.8007,126.78468 v 4.11907 l 45.8156,75.57544 45.8157,-75.57544 v -4.11907 l -33.5502,8.98981 v 1.68699 h 17.9981 l -30.2636,48.84168 -30.2636,-48.84168 h 17.9973 v -1.68699 z" />
      <path
         id="path39717"
         style="fill:url(#linearGradient1516);fill-opacity:1;stroke:none;stroke-width:0.4751px;stroke-linecap:butt;stroke-linejoin:miter;stroke-opacity:1"
         d="m 1620.2145,137.87809 v 3.8045 l 24.5799,38.60759 24.5802,-38.60759 v -3.8045 l -24.5802,23.9852 z" />
      <path
         style="opacity:1;fill:url(#linearGradient1518);fill-opacity:1;stroke-width:0.240587"
         d="m 1687.4038,204.91515 c -1.7845,-0.48895 -3.0993,-1.65982 -4.1293,-3.67694 l -0.3876,-0.75924 1.2301,-0.29509 c 1.1279,-0.27061 1.2508,-0.25749 1.4799,0.15782 0.1381,0.24909 0.5988,0.80475 1.0257,1.2348 0.951,0.95796 2.3126,1.0742 3.3182,0.2833 0.7853,-0.61793 0.8644,-1.75912 0.1529,-2.20369 -0.6744,-0.42106 -0.5996,-0.83295 0.2285,-1.26123 1.124,-0.58124 2.1142,-0.46713 2.9175,0.3362 0.8436,0.84353 0.9281,2.02673 0.2511,3.51699 -1.0163,2.23753 -3.5704,3.35664 -6.0868,2.66713 z m -11.6254,-5.05943 c -2.6183,-0.83024 -4.3629,-2.27353 -5.3831,-4.45362 -1.9107,-4.86959 1.0357,-11.32138 4.0774,-14.43801 l 1.8219,-1.82823 -1.022,-0.66588 c -1.5838,-1.03191 -2.1406,-2.39195 -2.1406,-5.22844 0,-2.1172 0.062,-2.41876 0.8189,-3.96971 1.1732,-2.40432 3.7885,-4.92873 6.6416,-6.41102 2.7156,-1.41089 4.5393,-1.88363 7.2665,-1.88363 2.8391,0 4.3163,0.4544 5.5777,1.71584 3.3592,3.35917 0.8725,8.7528 -4.1787,9.06357 -1.2186,0.0748 -1.584,-0.004 -2.2886,-0.4804 -0.9893,-0.67196 -1.4387,-1.46271 -1.4436,-2.54004 0,-0.85647 0.3153,-0.98038 1.0649,-0.41336 0.7687,0.58142 2.4615,0.45403 3.1527,-0.23731 1.0654,-1.06536 0.6277,-2.96472 -0.8171,-3.54546 -2.2675,-0.91145 -4.7712,-0.63039 -7.2828,0.81758 -4.5641,2.63145 -6.2903,8.14235 -3.5075,11.19764 0.6404,0.70309 0.9007,0.68498 2.7561,-0.19166 2.3282,-1.1 4.1496,-1.49151 6.4922,-1.39531 1.789,0.0735 2.0845,0.15074 2.4899,0.65133 1.1083,1.36866 0.268,2.83637 -2.304,4.02474 -2.3856,1.10225 -4.5003,1.43782 -6.7615,1.07302 -0.9773,-0.15764 -1.9888,-0.21942 -2.2477,-0.13712 -0.7503,0.23817 -2.8069,2.64733 -3.5473,4.15574 -1.87,3.22869 -0.893,7.88147 1.3217,10.22599 2.4108,2.51336 7.9989,2.51351 11.5964,2e-4 2.4733,-1.72792 4.7249,-5.17512 4.9773,-7.62017 0.2211,-2.14222 -0.7872,-2.60326 -2.9637,-1.35497 -2.638,1.51306 -4.7591,4.92764 -5.0859,8.18745 l -0.1791,1.78763 -0.9522,0.19742 c -1.7073,0.35409 -1.7323,0.27306 -1.0549,-3.42455 0.8887,-4.85105 5.4753,-9.72368 9.4643,-10.05451 1.1816,-0.0979 1.3252,-0.0479 2.2419,0.78012 2.289,2.06801 1.781,6.34086 -1.2375,10.40791 -2.9147,3.92727 -8.2698,6.34626 -13.9658,6.30859 -1.3394,-0.009 -2.8684,-0.15334 -3.3976,-0.32124 z m 21.0367,-9.0604 c -0.8919,-0.89184 -0.537,-1.28463 1.1005,-1.21779 1.5892,0.0649 2.6162,-0.42647 3.5629,-1.70464 0.7612,-1.02756 0.8263,-3.02123 0.1437,-4.38867 -0.8419,-1.68589 -0.9785,-1.71233 -1.9719,-0.38194 -0.9446,1.26552 -2.9128,2.77526 -3.3032,2.53392 -0.5781,-0.35719 -0.22,-1.26948 0.766,-1.95086 1.1133,-0.76948 2.3636,-2.54612 2.3636,-3.35853 0,-0.28876 -0.1735,-0.93904 -0.3845,-1.44513 -0.7087,-1.69614 -0.078,-3.34114 1.6105,-4.20271 2.3809,-1.21465 3.515,0.78965 1.7786,3.14329 -0.3293,0.44623 -0.5987,0.87964 -0.5987,0.96314 0,0.0834 0.4983,0.79323 1.1072,1.57723 1.2786,1.64607 1.7993,2.57588 2.0106,3.59073 l 0.1511,0.72177 0.9796,-1.44355 c 0.5386,-0.79392 1.329,-2.13664 1.756,-2.98379 0.8033,-1.59312 0.8097,-1.6972 0.2369,-3.88947 -0.2531,-0.96938 -0.2292,-1.2298 0.2023,-2.20518 0.5604,-1.26687 1.3265,-1.85902 2.6315,-2.03406 1.8737,-0.25132 2.2415,1.33498 0.8232,3.54991 l -0.6831,1.06672 1.48,1.44351 c 1.6169,1.57714 2.0588,2.56696 2.0538,4.5991 0,0.80685 -0.1905,1.50315 -0.6015,2.2221 -0.3292,0.57588 -0.5986,1.11311 -0.5986,1.19388 0,0.28464 2.4481,-2.24918 2.7776,-2.87495 0.1828,-0.3487 0.554,-1.64788 0.823,-2.88706 0.6832,-3.14739 1.6674,-5.04144 3.6251,-6.97579 2.4632,-2.43389 5.3281,-3.31577 6.6093,-2.03445 2.2403,2.24027 -0.3438,6.36723 -4.9279,7.87055 -2.1607,0.7085 -2.2414,0.79632 -2.1165,2.30183 0.1879,2.26545 1.3809,2.79716 3.688,1.64364 3.2109,-1.60547 6.205,-5.5123 7.5381,-9.83578 0.6059,-1.96479 0.5912,-1.72227 0.1325,-2.18108 -0.5015,-0.50165 -0.2746,-0.79683 0.8441,-1.09809 1.5762,-0.42442 2.4192,0.14364 2.4192,1.63002 0,0.62603 0.019,0.62275 1.0225,-0.3575 1.7827,-1.72481 2.7404,-2.23845 4.1744,-2.23845 1.3699,0 2.1379,0.50657 2.4097,1.58957 0.181,0.72126 -0.533,3.41981 -1.5909,6.01339 -1.4704,3.60466 -1.4596,4.13706 0.078,3.84862 1.7364,-0.32576 3.0502,-2.38448 6.2108,-9.73115 l 0.4499,-1.04631 -1.445,0.16771 c -1.3607,0.15783 -1.4452,0.13805 -1.4452,-0.33704 0,-0.61978 0.7604,-1.41586 1.4975,-1.5677 2.6346,-0.54267 2.4289,-0.41123 3.0566,-1.95279 0.3216,-0.78937 0.5791,-1.84075 0.5723,-2.33644 -0.019,-0.84825 0.043,-0.91619 0.9309,-1.15527 2.4065,-0.648 3.2219,0.71856 1.998,3.34806 l -0.6013,1.29155 1.8064,-0.16939 c 1.5846,-0.14849 1.8066,-0.12069 1.8066,0.22633 0,0.21759 0.1082,0.32829 0.2421,0.24602 0.1325,-0.0823 0.6953,-0.15596 1.2493,-0.16342 1.0505,-0.0149 1.8769,0.61752 1.8769,1.43532 0,0.20655 -0.8189,2.16452 -1.82,4.35106 -2.0586,4.49739 -2.2869,5.24109 -1.6799,5.47402 1.5493,0.59453 4.7869,-2.1611 6.6407,-5.65186 1.9446,-3.6621 4.4233,-5.83022 7.5943,-6.64255 1.5426,-0.39521 2.6733,-0.23493 3.4775,0.49288 0.4018,0.36367 0.472,0.35527 0.979,-0.11715 0.9585,-0.89293 3.2635,-1.19792 3.7012,-0.48973 0.067,0.10894 -0.4507,1.04433 -1.1514,2.07849 -0.7007,1.03418 -2.0289,3.36543 -2.9516,5.1805 -1.3719,2.69831 -1.6292,3.37836 -1.4115,3.72909 0.3963,0.63818 0.9414,0.64786 2.2054,0.039 2.3487,-1.131 4.3885,-3.52859 6.7646,-7.95096 l 1.2497,-2.32612 -0.6994,-0.4131 c -0.7533,-0.44498 -1.4863,-1.50101 -1.4863,-2.14121 0,-0.90274 0.7257,-1.79738 1.6933,-2.08728 1.2085,-0.3621 1.7644,-0.0112 1.1158,0.70605 -0.2218,0.24513 -0.4031,0.55568 -0.4031,0.69017 0,0.28038 0.9193,1.1685 1.0551,1.01931 0.05,-0.0545 0.8221,-1.23556 1.7172,-2.62494 2.9003,-4.50274 5.7577,-7.61787 8.0566,-8.7827 2.2393,-1.13479 3.7032,-1.00135 4.5677,0.41623 1.1002,1.80475 0.26,4.51642 -2.2847,7.37279 -2.2528,2.52883 -4.3366,3.92382 -7.6355,5.11202 -1.1563,0.41642 -2.201,0.87809 -2.3217,1.02601 -0.5773,0.7077 -4.5984,8.59473 -4.5984,9.01956 0,0.26658 0.2261,0.64295 0.5021,0.83639 0.6351,0.44483 1.5193,0.21306 3.1298,-0.82042 1.565,-1.00426 6.6802,-6.35707 6.8531,-7.17148 0.3536,-1.66547 0.98,-2.88297 2.0279,-3.9409 0.9861,-0.99561 1.2597,-1.1428 2.124,-1.1428 0.8458,0 1.0136,0.0849 1.1367,0.57555 0.1791,0.71669 -0.2785,1.62202 -1.5547,3.07018 -0.5425,0.61579 -0.9865,1.25586 -0.9865,1.42241 0,0.16659 0.2695,0.76266 0.5988,1.32468 0.7914,1.35033 1.3316,3.48992 1.1555,4.57565 -0.1964,1.20997 -1.4611,2.98404 -2.5093,3.51978 -2.2864,1.16876 -5.4273,1.09144 -7.0871,-0.17442 l -0.7736,-0.59003 -1.8388,0.84967 c -2.125,0.98178 -3.67,1.23297 -5.1417,0.83595 -0.8487,-0.22888 -1.1059,-0.43664 -1.3938,-1.12565 l -0.3531,-0.84496 -0.7716,0.50759 c -3.3379,2.19592 -6.4668,2.64573 -7.4943,1.07742 l -0.3968,-0.60547 -0.6932,0.49358 c -1.9233,1.36963 -4.3793,1.84888 -5.4894,1.07132 -0.2959,-0.20726 -0.7595,-0.81075 -1.03,-1.34109 -0.5479,-1.07381 -0.3292,-1.12384 -2.3886,0.54693 -1.5733,1.2764 -3.024,1.92889 -4.607,2.07248 -1.327,0.12033 -1.4283,0.0896 -2.1066,-0.6363 l -0.7124,-0.7627 -2.2041,1.12826 c -1.4228,0.72828 -2.6212,1.16837 -3.3801,1.24129 -1.0809,0.10372 -1.2341,0.0504 -1.8991,-0.66141 l -0.7235,-0.7744 -0.9049,0.71384 c -1.3156,1.03765 -2.7246,1.73692 -3.4997,1.73692 -1.0551,0 -2.0987,-0.6675 -2.4836,-1.58859 -0.4314,-1.03288 -0.2915,-1.61417 1.3514,-5.61102 0.6604,-1.6065 1.2007,-3.08313 1.2007,-3.28141 0,-0.58823 -0.6837,-0.67629 -1.6984,-0.21872 -2.4489,1.10429 -4.9561,4.9226 -5.7922,8.82099 -0.2065,0.96286 -0.1847,1.2777 0.1212,1.74546 0.3543,0.54046 0.3403,0.59275 -0.2628,0.98797 -0.7432,0.48696 -2.4449,0.71 -2.9281,0.38376 -0.1847,-0.12425 -0.4005,-0.61609 -0.4811,-1.09289 l -0.1474,-0.86694 -1.8043,1.21618 c -2.6198,1.76568 -3.9943,2.41714 -5.4076,2.56302 -1.4784,0.1526 -2.7706,-0.35073 -3.2631,-1.27095 l -0.3196,-0.59728 -0.9782,0.93495 c -2.412,2.30516 -5.0436,3.4728 -7.9038,3.50694 -1.9905,0.0237 -2.326,-0.1513 -2.3336,-1.21822 0,-0.48067 0.058,-0.50005 0.8274,-0.26378 1.1521,0.35359 2.8046,-0.29231 3.6782,-1.43779 0.5236,-0.68652 0.6693,-1.17014 0.7424,-2.46368 0.078,-1.36932 0,-1.79516 -0.5393,-2.85346 -0.3468,-0.68418 -0.7098,-1.24344 -0.8068,-1.24284 -0.097,7.1e-4 -0.6884,1.00204 -1.3143,2.22544 -0.6258,1.2234 -1.7627,3.05525 -2.5262,4.07082 -0.7636,1.01558 -1.5684,2.17201 -1.7887,2.56987 -1.217,2.19896 -6.075,3.78412 -7.4335,2.42562 z m 52.5035,-11.49246 c 2.1041,-1.02294 3.6123,-3.1815 5.4633,-7.81811 1.0598,-2.65506 1.0824,-2.60018 -0.9928,-2.4204 -2.5811,0.22358 -2.7371,0.34612 -3.9487,3.10019 -2.3023,5.233 -2.7938,6.64022 -2.5254,7.22935 0.2946,0.64679 0.5058,0.63722 2.0036,-0.091 z m -26.6147,-1.63604 c 0.5351,-0.18767 1.5286,-0.82726 2.2079,-1.42135 1.7302,-1.51361 2.3093,-3.47945 1.0249,-3.47945 -1.2318,0 -2.7906,1.3821 -4.1903,3.71496 -0.961,1.60159 -1.0501,1.94843 -0.4368,1.69858 0.2317,-0.0944 0.8591,-0.32505 1.3943,-0.51274 z m 45.68,-1.08317 c 0.7432,-0.65427 1.4713,-1.76952 2.6501,-4.05992 1.8034,-3.50395 1.8801,-4.09377 0.5903,-4.54341 -1.9956,-0.69561 -5.2555,2.41679 -6.7034,6.39966 -0.5971,1.64255 -0.5337,2.42908 0.2549,3.16372 0.4227,0.3939 0.6161,0.42298 1.3387,0.20125 0.4645,-0.14252 1.3056,-0.66517 1.8694,-1.1613 z m 23.0205,0.45192 c 1.5607,-0.658 2.6519,-3.33791 2.1374,-5.24866 -0.14,-0.52009 -0.3177,-0.94561 -0.395,-0.94561 -0.1399,0 -3.3937,3.40957 -4.8792,5.11332 l -0.7873,0.90306 0.8076,0.3567 c 0.9169,0.405 1.8605,0.35087 3.1165,-0.1789 z m -1.0642,-13.61287 c 4.1285,-2.08409 7.2156,-5.68051 7.0094,-8.16599 -0.065,-0.78823 -0.1585,-0.90523 -0.7702,-0.97513 -0.5985,-0.0685 -0.971,0.20182 -2.6552,1.92466 -1.5385,1.57391 -4.6658,5.7814 -6.0045,8.07832 -0.2181,0.37392 0.4283,0.14365 2.4205,-0.86186 z m -31.8155,0.81157 c -0.3188,-0.48655 -0.3397,-0.73914 -0.1176,-1.41443 0.6198,-1.87778 2.8688,-2.64738 3.6223,-1.23946 1.026,1.91712 -2.3257,4.45455 -3.5055,2.65389 z"
         id="path39719"
         sodipodi:nodetypes="sscsssssssssscccsssssssscsssssssssssccsssscssssscssssssssssssssscsssssscscssssssssssssssssssscssssssscssssssssssssssssscssssssssssssssssssssssssscssscsscsssssscssscssssssssssscssscsscssscssssssssssssssssssssssssssssscssssssssssss" />
      <path
         style="color:#000000;opacity:1;fill:url(#linearGradient1520);fill-opacity:1;stroke-width:0.948779;stroke-linecap:round;stroke-linejoin:round;-inkscape-stroke:none"
         d="m 1788.7269,183.5431 c -28.9023,-0.25697 -63.7073,5.32767 -82.054,17.30274 -0.5188,0.33874 -0.6649,1.03405 -0.3261,1.55289 0.3388,0.51891 1.6621,4.62239 2.1811,4.28359 15.9242,-13.38828 51.5237,-21.14988 80.1786,-20.89513 0.6198,0.006 1.1268,-0.49214 1.1322,-1.11186 0,-0.6197 -0.4921,-1.12669 -1.1118,-1.13223 z"
         id="path39721"
         sodipodi:nodetypes="csscccc" />
      <g
         aria-label="VIP"
         id="text39725"
         style="font-weight:900;font-size:38.1351px;line-height:1.25;font-family:Nexa-Trial;-inkscape-font-specification:'Nexa-Trial Heavy';fill:url(#linearGradient1522);stroke-width:0.953379">
        <path
           d="m 1700.4399,132.55901 h 6.9025 l 3.5847,9.07616 3.7754,10.37275 3.8516,-10.37275 3.5466,-9.07616 h 6.9024 l -10.9829,26.69458 h -6.5974 z"
           id="path2453" />
        <path
           d="m 1731.7107,132.55901 h 6.2541 v 26.69458 h -6.2541 z"
           id="path2455" />
        <path
           d="m 1743.7995,132.55901 h 12.7752 q 3.089,0 5.3771,1.18219 2.3262,1.14406 3.5847,3.31776 1.2584,2.1737 1.2584,5.07197 0,2.89826 -1.2584,5.07196 -1.2585,2.1737 -3.5847,3.35589 -2.2881,1.14406 -5.3771,1.14406 h -6.5211 v 7.55075 h -6.2541 z m 12.4701,13.69051 q 1.9831,0 3.1271,-1.10592 1.1822,-1.10592 1.1822,-2.97454 0,-1.86862 -1.1822,-2.97454 -1.144,-1.10592 -3.1271,-1.10592 h -6.2541 v 8.16092 z"
           id="path2457" />
      </g>
      <path
         style="fill:url(#linearGradient1524);fill-opacity:1;stroke:none;stroke-width:0.264583px;stroke-linecap:butt;stroke-linejoin:miter;stroke-opacity:1"
         d="m 1643.6295,153.74155 c -7.3377,-6.36103 -2.5464,-11.12263 -4.7008,-15.82364 4.9706,2.52091 10.5715,5.95684 6.9188,13.10912 -0.4459,-4.03399 -1.5861,-5.69087 -2.7477,-7.74629 1.3451,3.65126 1.9925,7.20441 0.5297,10.46081 z"
         id="path39735"
         sodipodi:nodetypes="ccccc" />
      <path
         style="fill:url(#linearGradient1526);fill-opacity:1;stroke:none;stroke-width:0.185299px;stroke-linecap:butt;stroke-linejoin:miter;stroke-opacity:1"
         d="m 1647.9327,154.64063 c 6.5568,-1.80643 4.9653,-6.26146 7.7453,-8.58258 -3.9021,0.0935 -8.4788,0.57525 -8.328,6.19773 1.4989,-2.41501 2.7194,-3.11818 4.0737,-4.06678 -1.9517,1.90182 -3.4329,3.95217 -3.491,6.45163 z"
         id="path39737"
         sodipodi:nodetypes="ccccc" />
    </g>
  </g>
</svg>
